<svg xmlns="http://www.w3.org/2000/svg" width="805" height="804" viewBox="0 0 805 804"><g transform="translate(-66 -2868)"><path d="M36,3H4V23a8,8,0,0,0,8,8H24a8,8,0,0,0,8-8V17h4a4,4,0,0,0,4-4V7A3.986,3.986,0,0,0,36,3Zm0,10H32V7h4ZM4,35H36v4H4Z" transform="translate(64 3465)" fill="#8ba779"/><path d="M38,4H6A4,4,0,0,0,2.02,8L2,32a4.012,4.012,0,0,0,4,4H38a4.012,4.012,0,0,0,4-4V8A4.012,4.012,0,0,0,38,4Zm0,8L22,22,6,12V8L22,18,38,8Z" transform="translate(64 2869)" fill="#8ba779"/><path d="M28.46,3H13.54L3,13.54V28.46L13.54,39H28.46L39,28.46V13.54ZM21,31.6A2.6,2.6,0,1,1,23.6,29,2.595,2.595,0,0,1,21,31.6ZM23,23H19V11h4Z" transform="translate(65 2952)" fill="#8ba779"/><path d="M3,7H7V3A4.012,4.012,0,0,0,3,7ZM3,23H7V19H3Zm8,16h4V35H11ZM3,15H7V11H3ZM23,3H19V7h4ZM35,3V7h4A4.012,4.012,0,0,0,35,3ZM7,39V35H3A4.012,4.012,0,0,0,7,39ZM3,31H7V27H3ZM15,3H11V7h4Zm4,36h4V35H19ZM35,23h4V19H35Zm0,16a4.012,4.012,0,0,0,4-4H35Zm0-24h4V11H35Zm0,16h4V27H35Zm-8,8h4V35H27ZM27,7h4V3H27ZM11,31H31V11H11Zm4-16H27V27H15Z" transform="translate(65 3123)" fill="#8ba779"/><path d="M33,7.82,30.18,5,19,16.18,7.82,5,5,7.82,16.18,19,5,30.18,7.82,33,19,21.82,30.18,33,33,30.18,21.82,19Z" transform="translate(67 3208)" fill="#8ba779"/><path d="M3,39H39V35H3ZM3,13V29l8-8ZM19,31H39V27H19ZM3,3V7H39V3ZM19,15H39V11H19Zm0,8H39V19H19Z" transform="translate(65 3293)" fill="#8ba779"/><path d="M7,27H3v8a4.012,4.012,0,0,0,4,4h8V35H7ZM7,7h8V3H7A4.012,4.012,0,0,0,3,7v8H7ZM35,3H27V7h8v8h4V7A4.012,4.012,0,0,0,35,3Zm0,32H27v4h8a4.012,4.012,0,0,0,4-4V27H35ZM21,13a8,8,0,1,0,8,8A8,8,0,0,0,21,13Zm0,12a4,4,0,1,1,4-4A4.012,4.012,0,0,1,21,25Z" transform="translate(65 3550)" fill="#8ba779"/><path d="M20,30h4V28h2a2.006,2.006,0,0,0,2-2V20a2.006,2.006,0,0,0-2-2H20V16h8V12H24V10H20v2H18a2.006,2.006,0,0,0-2,2v6a2.006,2.006,0,0,0,2,2h6v2H16v4h4ZM38,4H6A3.969,3.969,0,0,0,2.02,8L2,32a3.986,3.986,0,0,0,4,4H38a3.986,3.986,0,0,0,4-4V8A3.986,3.986,0,0,0,38,4Zm0,28H6V8H38Z" transform="translate(64 3629)" fill="#8ba779"/><path d="M38,2H6A4,4,0,0,0,2.02,6L2,42l8-8H38a4.012,4.012,0,0,0,4-4V6A4.012,4.012,0,0,0,38,2ZM34,26H10V22H34Zm0-6H10V16H34Zm0-6H10V10H34Z" transform="translate(64 3379)" fill="#8ba779"/><path d="M5.8,17A6.205,6.205,0,0,1,12,10.8h8V7H12a10,10,0,0,0,0,20h8V23.2H12A6.205,6.205,0,0,1,5.8,17ZM14,19H30V15H14ZM32,7H24v3.8h8a6.2,6.2,0,1,1,0,12.4H24V27h8A10,10,0,0,0,32,7Z" transform="translate(64 3039)" fill="#8ba779"/></g><g transform="translate(-74 -2867)"><path d="M35,3H7A4.012,4.012,0,0,0,3,7V35a4.012,4.012,0,0,0,4,4H35a4.012,4.012,0,0,0,4-4V7A4.012,4.012,0,0,0,35,3ZM12,33a3,3,0,1,1,3-3A3,3,0,0,1,12,33Zm0-18a3,3,0,1,1,3-3A3,3,0,0,1,12,15Zm9,9a3,3,0,1,1,3-3A3,3,0,0,1,21,24Zm9,9a3,3,0,1,1,3-3A3,3,0,0,1,30,33Zm0-18a3,3,0,1,1,3-3A3,3,0,0,1,30,15Z" transform="translate(156 3465)" fill="#8ba779"/><path d="M41.98,15a3.964,3.964,0,0,0-1.88-3.4L22,1,3.9,11.6A3.982,3.982,0,0,0,2,15V35a4.012,4.012,0,0,0,4,4H38a4.012,4.012,0,0,0,4-4ZM22,25,5.48,14.68,22,5l16.52,9.68Z" transform="translate(155 2867)" fill="#8ba779"/><path d="M31,3H7A4,4,0,0,0,3,7V35a4,4,0,0,0,4,4H35a4.012,4.012,0,0,0,4-4V11ZM21,35a6,6,0,1,1,6-6A5.992,5.992,0,0,1,21,35Zm6-20H7V7H27Z" transform="translate(156 2951)" fill="#8ba779"/><path d="M24,12H20v8H12v4h8v8h4V24h8V20H24ZM22,2A20,20,0,1,0,42,22,20.007,20.007,0,0,0,22,2Zm0,36A16,16,0,1,1,38,22,16.021,16.021,0,0,1,22,38Z" transform="translate(155 3122)" fill="#8ba779"/><path d="M19,2A13.99,13.99,0,0,0,5,16C5,26.5,19,42,19,42S33,26.5,33,16A13.99,13.99,0,0,0,19,2Zm0,19a5,5,0,1,1,5-5A5,5,0,0,1,19,21Z" transform="translate(158 3205)" fill="#8ba779"/><path d="M23,11H19v4h4Zm0,8H19v4h4Zm8,0H27v4h4ZM3,3V39H39V3ZM35,35H7V7H35ZM23,27H19v4h4Zm-8-8H11v4h4Z" transform="translate(156 3293)" fill="#8ba779"/><path d="M6,7V1h4V7h6v4H10v6H6V11H0V7Zm6,12V13h6V7H32l3.66,4H42a4.012,4.012,0,0,1,4,4V39a4.012,4.012,0,0,1-4,4H10a4.012,4.012,0,0,1-4-4V19ZM26,37A10,10,0,1,0,16,27,10,10,0,0,0,26,37ZM19.6,27A6.4,6.4,0,1,0,26,20.6,6.393,6.393,0,0,0,19.6,27Z" transform="translate(154 3549)" fill="#8ba779"/><path d="M20,2C11.16,2,4,3,4,10V29a7.008,7.008,0,0,0,7,7L8,39v1H32V39l-3-3a7.008,7.008,0,0,0,7-7V10C36,3,28.84,2,20,2ZM11,32a3,3,0,1,1,3-3A3,3,0,0,1,11,32Zm7-12H8V10H18ZM29,32a3,3,0,1,1,3-3A3,3,0,0,1,29,32Zm3-12H22V10H32Z" transform="translate(157 3628)" fill="#8ba779"/><path d="M22,11a4.986,4.986,0,0,1,3.34,8.7l7.26,7.26C34.56,23.24,36,19.36,36,16A13.989,13.989,0,0,0,11.92,6.3l6.38,6.38A4.891,4.891,0,0,1,22,11Zm8.74,19.2-9.26-9.26-.22-.22L4.54,4,2,6.54,8.36,12.9A14.441,14.441,0,0,0,8,16C8,26.5,22,42,22,42a91.612,91.612,0,0,0,6.76-8.7l6.7,6.7L38,37.46,30.74,30.2Z" transform="translate(157 3379)" fill="#8ba779"/><path d="M31.25,31h9v4.5h-9Zm0-18H47v4.5H31.25Zm0,9h13.5v4.5H31.25Zm-27,13.5A4.513,4.513,0,0,0,8.75,40h13.5a4.513,4.513,0,0,0,4.5-4.5V13H4.25ZM29,6.25H22.25L20,4H11L8.75,6.25H2v4.5H29Z" transform="translate(152 3034)" fill="#8ba779"/></g><g transform="translate(-58 -2867)"><path d="M36,32V20a4.012,4.012,0,0,0-4-4H10V12L4,18l6,6V20h8v6H4v6a4.012,4.012,0,0,0,4,4h4a6,6,0,0,0,12,0H40V32ZM18,38a2,2,0,1,1,2-2A2.006,2.006,0,0,1,18,38ZM32,26H24V20h8ZM30,2V6H14v4H30v4l6-6Z" transform="translate(402 3464)" fill="#8ba779"/><path d="M26,5H42V9H26Zm0,11H42v4H26Zm0,11H42v4H26ZM2,18A13.025,13.025,0,0,0,15,31h1v4l6-6-6-6v4H15A9,9,0,0,1,15,9h7V5H15A13.025,13.025,0,0,0,2,18Z" transform="translate(402 2867)" fill="#8ba779"/><path d="M41,15a4.012,4.012,0,0,0-4,4v6H9V19a4,4,0,0,0-8,0V29a4.012,4.012,0,0,0,4,4H41a4.012,4.012,0,0,0,4-4V19A4.012,4.012,0,0,0,41,15ZM35,5H11A4.012,4.012,0,0,0,7,9v4.3a5.981,5.981,0,0,1,4,5.64V23H35V18.94a6.021,6.021,0,0,1,4-5.64V9A4.012,4.012,0,0,0,35,5Z" transform="translate(401 2953)" fill="#8ba779"/><path d="M44,3H14a3.764,3.764,0,0,0-3.18,1.76L0,21,10.82,37.22A3.783,3.783,0,0,0,14,39H44a4.012,4.012,0,0,0,4-4V7A4.012,4.012,0,0,0,44,3ZM38,28.18,35.18,31,28,23.82,20.82,31,18,28.18,25.18,21,18,13.82,20.82,11,28,18.18,35.18,11,38,13.82,30.82,21Z" transform="translate(400 3123)" fill="#8ba779"/><path d="M38,2H6A4.012,4.012,0,0,0,2,6V42l8-8H38a4.012,4.012,0,0,0,4-4V6A4.012,4.012,0,0,0,38,2Zm0,28H10L6,34V6H38Z" transform="translate(402 3205)" fill="#8ba779"/><path d="M11,7h4V3H11Zm0,16h4V19H11Zm0,16h4V35H11Zm8-8h4V27H19Zm0,8h4V35H19ZM3,39H7V35H3Zm0-8H7V27H3Zm0-8H7V19H3Zm0-8H7V11H3ZM3,7H7V3H3ZM19,23h4V19H19Zm16,8h4V27H35Zm0-8h4V19H35Zm0,16h4V35H35Zm0-24h4V11H35ZM19,15h4V11H19ZM35,3V7h4V3ZM19,7h4V3H19Zm8,32h4V35H27Zm0-16h4V19H27ZM27,7h4V3H27Z" transform="translate(403 3293)" fill="#8ba779"/><path d="M15,40H5v4H15v4l6-6-6-6Zm8,0v4H33V40ZM29,0H9A4.012,4.012,0,0,0,5,4V32a4.012,4.012,0,0,0,4,4H29a4.012,4.012,0,0,0,4-4V4A4.012,4.012,0,0,0,29,0ZM19,12a4,4,0,1,1,3.98-4A4,4,0,0,1,19,12Z" transform="translate(405 3547)" fill="#8ba779"/><path d="M3,2,7.02,38.46A4,4,0,0,0,11,42H31a4,4,0,0,0,3.98-3.54L39,2ZM21,36a5.992,5.992,0,0,1-6-6c0-4,6-10.8,6-10.8S27,26,27,30A5.992,5.992,0,0,1,21,36ZM33.66,14H8.34L7.46,6H34.52Z" transform="translate(403 3627)" fill="#8ba779"/><path d="M26,11V34a8,8,0,0,1-16,0V9A5,5,0,0,1,20,9V30a2,2,0,0,1-4,0V11H13V30a5,5,0,0,0,10,0V9A8,8,0,0,0,7,9V34a11,11,0,0,0,22,0V11Z" transform="translate(406 3378)" fill="#8ba779"/><path d="M12,20v4H32V20ZM22,2A20,20,0,1,0,42,22,20.007,20.007,0,0,0,22,2Zm0,36A16,16,0,1,1,38,22,16.021,16.021,0,0,1,22,38Z" transform="translate(402 3034)" fill="#8ba779"/></g><g transform="translate(-55 -2867)"><g transform="translate(488 3468)"><path d="M42,39a7.65,7.65,0,0,1-4.36-1.28,3.754,3.754,0,0,0-2.3-.72,3.592,3.592,0,0,0-2.3.72,8.066,8.066,0,0,1-8.72,0,3.754,3.754,0,0,0-2.3-.72,3.592,3.592,0,0,0-2.3.72A7.782,7.782,0,0,1,15.34,39a7.65,7.65,0,0,1-4.36-1.28A3.631,3.631,0,0,0,8.68,37a3.631,3.631,0,0,0-2.3.72A7.782,7.782,0,0,1,2,39V35a3.592,3.592,0,0,0,2.3-.72A7.782,7.782,0,0,1,8.68,33a7.65,7.65,0,0,1,4.36,1.28,3.592,3.592,0,0,0,2.3.72,3.592,3.592,0,0,0,2.3-.72A7.782,7.782,0,0,1,22.02,33a7.65,7.65,0,0,1,4.36,1.28,3.754,3.754,0,0,0,2.3.72,3.631,3.631,0,0,0,2.3-.72,8.066,8.066,0,0,1,8.72,0A3.592,3.592,0,0,0,42,35v4Zm0-9a7.65,7.65,0,0,1-4.36-1.28,3.754,3.754,0,0,0-2.3-.72,3.592,3.592,0,0,0-2.3.72,8.066,8.066,0,0,1-8.72,0,3.754,3.754,0,0,0-2.3-.72,3.592,3.592,0,0,0-2.3.72A7.65,7.65,0,0,1,15.36,30,7.65,7.65,0,0,1,11,28.72,3.754,3.754,0,0,0,8.7,28a3.631,3.631,0,0,0-2.3.72A7.916,7.916,0,0,1,2,30V26a3.592,3.592,0,0,0,2.3-.72A7.65,7.65,0,0,1,8.66,24a7.65,7.65,0,0,1,4.36,1.28,3.754,3.754,0,0,0,2.3.72,3.592,3.592,0,0,0,2.3-.72A7.65,7.65,0,0,1,21.98,24a7.65,7.65,0,0,1,4.36,1.28,3.754,3.754,0,0,0,2.3.72,3.631,3.631,0,0,0,2.3-.72,8.066,8.066,0,0,1,8.72,0,3.754,3.754,0,0,0,2.3.72v4ZM15.34,21a3.592,3.592,0,0,0,2.3-.72A7.782,7.782,0,0,1,22.02,19a7.65,7.65,0,0,1,4.36,1.28,3.754,3.754,0,0,0,2.3.72,3.631,3.631,0,0,0,2.3-.72c.24-.14.52-.3.82-.46L18.96,7C15.86,3.9,13,2.98,8,3V8c3.64-.02,5.78.78,8,3l2,2-6.5,6.5a10.943,10.943,0,0,1,1.54.78A3.592,3.592,0,0,0,15.34,21Z" transform="translate(-2 -3)" fill="#8ba779"/><circle cx="2.5" cy="2.5" r="2.5" transform="translate(27.677 0.341)" fill="#8ba779"/></g><path d="M3,31.5V39h7.5L32.616,16.881l-7.5-7.5ZM38.415,11.081a1.991,1.991,0,0,0,0-2.82L33.736,3.582a1.991,1.991,0,0,0-2.82,0L27.257,7.242l7.5,7.5,3.659-3.659Z" transform="translate(487 2866.002)" fill="#8ba779"/><path d="M3,30H15V26H3ZM3,6v4H39V6ZM3,20H27V16H3Z" transform="translate(487 2954)" fill="#8ba779"/><path d="M38,4H6A4,4,0,0,0,2.02,8L2,32a4.012,4.012,0,0,0,4,4H38a4.012,4.012,0,0,0,4-4V8A4.012,4.012,0,0,0,38,4Zm0,8L22,22,6,12V8L22,18,38,8Z" transform="translate(486 3124)" fill="#8ba779"/><path d="M35,6.82,32.18,4,9,27.18V14H5V34H25V30H11.82Z" transform="translate(488 3208)" fill="#8ba779"/><path d="M27,39h4V35H27Zm8,0h4V35H35ZM11,39h4V35H11Zm8,0h4V35H19Zm16-8h4V27H35Zm0-8h4V19H35ZM3,3V39H7V7H39V3ZM35,15h4V11H35Z" transform="translate(487 3293)" fill="#8ba779"/><path d="M12,25a5.991,5.991,0,0,0-6,6,4.058,4.058,0,0,1-4,4,10.346,10.346,0,0,0,8,4,8,8,0,0,0,8-8A5.991,5.991,0,0,0,12,25ZM39.415,6.262l-2.68-2.68a1.991,1.991,0,0,0-2.82,0L16,21.5,21.5,27,39.415,9.082A1.991,1.991,0,0,0,39.415,6.262Z" transform="translate(487 3550.002)" fill="#8ba779"/><path d="M4,30a5.972,5.972,0,0,0,2,4.44V38a2.006,2.006,0,0,0,2,2h2a2.006,2.006,0,0,0,2-2V36H28v2a2.006,2.006,0,0,0,2,2h2a2.006,2.006,0,0,0,2-2V34.44A5.972,5.972,0,0,0,36,30V10c0-7-7.16-8-16-8S4,3,4,10Zm7,2a3,3,0,1,1,3-3A3,3,0,0,1,11,32Zm18,0a3,3,0,1,1,3-3A3,3,0,0,1,29,32Zm3-12H8V10H32Z" transform="translate(488 3628)" fill="#8ba779"/><path d="M44,3H4A4.012,4.012,0,0,0,0,7V35a4.012,4.012,0,0,0,4,4H44a4,4,0,0,0,3.98-4L48,7A4.012,4.012,0,0,0,44,3ZM16,9a6,6,0,1,1-6,6A5.992,5.992,0,0,1,16,9ZM28,33H4V31c0-4,8-6.2,12-6.2S28,27,28,31Zm7.7-8h3.28L42,29l-3.98,3.98A15.023,15.023,0,0,1,32.56,25a14.566,14.566,0,0,1,0-8,14.948,14.948,0,0,1,5.46-7.98L42,13l-3.02,4H35.7a11.779,11.779,0,0,0,0,8Z" transform="translate(484 3380)" fill="#8ba779"/><path d="M35.26,14.2A20.943,20.943,0,0,0,1.54,23.44L6.26,25A15.942,15.942,0,0,1,31.7,17.76L24.46,25h18V7Z" transform="translate(486.46 3040)" fill="#8ba779"/></g><g transform="translate(-49 -2867)"><path d="M2,29H42v4H2ZM25.68,10.58A4.127,4.127,0,0,0,26,9a4,4,0,0,0-8,0,4.127,4.127,0,0,0,.32,1.58A18.024,18.024,0,0,0,4,27H40A18.024,18.024,0,0,0,25.68,10.58Z" transform="translate(568 3467)" fill="#8ba779"/><path d="M6.309,10.711C7.7,9.3,9.084,8.035,9.7,8.293c.991.4,0,2.042-.595,3.013-.5.833-5.67,7.711-5.67,12.509a7.111,7.111,0,0,0,2.656,5.907,5.94,5.94,0,0,0,5.233.912c2.121-.615,3.866-2.775,6.066-5.491,2.4-2.954,5.61-6.819,8.088-6.819,3.231,0,3.271,2,3.489,3.548C21.474,23.141,18.3,29.148,18.3,32.518a6.26,6.26,0,0,0,6.363,6.126c3.231,0,8.5-2.637,9.3-12.093H38.84V21.595h-4.9c-.3-3.271-2.161-8.326-7.989-8.326-4.46,0-8.286,3.786-9.793,5.63-1.15,1.447-4.084,4.916-4.54,5.392-.5.595-1.348,1.665-2.2,1.665-.892,0-1.427-1.645-.714-3.806a36.175,36.175,0,0,1,3.667-6.978c1.546-2.26,2.577-3.806,2.577-6.5C14.952,4.368,11.7,3,9.977,3A8.645,8.645,0,0,0,4.584,5.478c-.714.714-1.308,1.308-1.744,1.844ZM24.725,33.826A1.489,1.489,0,0,1,23.259,32.4c0-1.189,1.447-4.361,5.689-5.471C28.353,32.26,26.113,33.826,24.725,33.826Z" transform="translate(569.16 2866)" fill="#8ba779"/><path d="M14,11V5L0,19,14,33V27L6,19Zm12,2V5L12,19,26,33V24.8C36,24.8,43,28,48,35,46,25,40,15,26,13Z" transform="translate(566 2952)" fill="#8ba779"/><path d="M17,30h8V26H17ZM3,6v4H39V6ZM9,20H33V16H9Z" transform="translate(569 3126)" fill="#8ba779"/><path d="M24,11a29.822,29.822,0,0,0-9.2,1.44v6.2a2.015,2.015,0,0,1-1.12,1.8,23.022,23.022,0,0,0-5.32,3.7,1.964,1.964,0,0,1-1.4.56,1.994,1.994,0,0,1-1.42-.58L.58,19.16A1.913,1.913,0,0,1,0,17.76a1.994,1.994,0,0,1,.58-1.42,34.033,34.033,0,0,1,46.84,0,2.028,2.028,0,0,1,0,2.84l-4.96,4.96a1.994,1.994,0,0,1-1.42.58,2.052,2.052,0,0,1-1.4-.56,22.541,22.541,0,0,0-5.34-3.7,1.992,1.992,0,0,1-1.12-1.8v-6.2A29.031,29.031,0,0,0,24,11Z" transform="translate(566 3211)" fill="#8ba779"/><path d="M32,24.8c0-8-12-21.6-12-21.6a87.555,87.555,0,0,0-5.46,7.04L31.72,27.42A12.519,12.519,0,0,0,32,24.8Zm-1.76,6.24L21,21.8,6.54,7.34,4,9.9l6.64,6.64C9.1,19.44,8,22.38,8,24.8a11.987,11.987,0,0,0,19.92,9l5.26,5.26,2.54-2.54-5.48-5.48Z" transform="translate(570 3292.8)" fill="#8ba779"/><path d="M21,3a18,18,0,0,0,0,36,3,3,0,0,0,2.22-5.02A2.989,2.989,0,0,1,25.46,29H29A10,10,0,0,0,39,19C39,10.16,30.94,3,21,3ZM10,21a3,3,0,1,1,3-3A3,3,0,0,1,10,21Zm6-8a3,3,0,1,1,3-3A3,3,0,0,1,16,13Zm10,0a3,3,0,1,1,3-3A3,3,0,0,1,26,13Zm6,8a3,3,0,1,1,3-3A3,3,0,0,1,32,21Z" transform="translate(569 3550)" fill="#8ba779"/><path d="M35,1H7A4,4,0,0,0,3.02,5L3,30.86a4.011,4.011,0,0,0,1.76,3.32L21,45,37.22,34.18a4.011,4.011,0,0,0,1.76-3.32L39,5A4.012,4.012,0,0,0,35,1ZM17,31,7,21l2.82-2.82L17,25.34,32.18,10.16,35,13Z" transform="translate(569 3626)" fill="#8ba779"/><path d="M42,13V11l-6,4-6-4v2l6,4ZM44,3H4A4.012,4.012,0,0,0,0,7V35a4.012,4.012,0,0,0,4,4H44a4,4,0,0,0,3.98-4L48,7A4.012,4.012,0,0,0,44,3ZM16,9a6,6,0,1,1-6,6A5.992,5.992,0,0,1,16,9ZM28,33H4V31c0-4,8-6.2,12-6.2S28,27,28,31ZM44,21H28V9H44Z" transform="translate(566 3380)" fill="#8ba779"/><path d="M35,4H26.64A5.976,5.976,0,0,0,15.36,4H7A4.012,4.012,0,0,0,3,8V40a4.012,4.012,0,0,0,4,4H35a4.012,4.012,0,0,0,4-4V8A4.012,4.012,0,0,0,35,4ZM21,4a2,2,0,1,1-2,2A2.006,2.006,0,0,1,21,4ZM35,40H7V8h4v6H31V8h4Z" transform="translate(569 3034)" fill="#8ba779"/></g><g transform="translate(-56 -2867)"><path d="M38,8H22L18,4H6A4,4,0,0,0,2.02,8L2,32a4.012,4.012,0,0,0,4,4H38a4.012,4.012,0,0,0,4-4V12A4.012,4.012,0,0,0,38,8ZM28,14a4,4,0,1,1-4,4A4.012,4.012,0,0,1,28,14Zm8,16H20V28c0-2.66,5.34-4,8-4s8,1.34,8,4Z" transform="translate(659 3466)" fill="#8ba779"/><path d="M23.8,8,23,4H5V38H9V24H20.2l.8,4H35V8Z" transform="translate(661 2866)" fill="#8ba779"/><path d="M38.1,7.44,35.32,4.08A3.018,3.018,0,0,0,33,3H9A2.9,2.9,0,0,0,6.7,4.1L3.92,7.44A3.97,3.97,0,0,0,3,10V35a4,4,0,0,0,4,4H35a4.012,4.012,0,0,0,4-4V10a4.066,4.066,0,0,0-.9-2.56ZM21,16,32,27H25v4H17V27H10ZM7.24,7,8.88,5h24l1.86,2Z" transform="translate(660 2951)" fill="#8ba779"/><path d="M35,3H7A4,4,0,0,0,3,7V35a4,4,0,0,0,4,4H35a4.012,4.012,0,0,0,4-4V7A4.012,4.012,0,0,0,35,3ZM31,23H23v8H19V23H11V19h8V11h4v8h8Z" transform="translate(660 3123)" fill="#8ba779"/><path d="M7,19H35V15H7ZM3,27H31V23H3ZM11,7v4H39V7Z" transform="translate(660 3210)" fill="#8ba779"/><path d="M17.28,18.8c-4.54-1.18-6-2.4-6-4.3,0-2.18,2.02-3.7,5.4-3.7,3.56,0,4.88,1.7,5,4.2H26.1a7.972,7.972,0,0,0-6.42-7.62V3h-6V7.32c-3.88.84-7,3.36-7,7.22,0,4.62,3.82,6.92,9.4,8.26,5,1.2,6,2.96,6,4.82,0,1.38-.98,3.58-5.4,3.58-4.12,0-5.74-1.84-5.96-4.2H6.32c.24,4.38,3.52,6.84,7.36,7.66V39h6V34.7c3.9-.74,7-3,7-7.1C26.68,21.92,21.82,19.98,17.28,18.8Z" transform="translate(663.68 3293)" fill="#8ba779"/><path d="M21,13a8,8,0,1,0,8,8A8,8,0,0,0,21,13ZM7,27H3v8a4.012,4.012,0,0,0,4,4h8V35H7ZM7,7h8V3H7A4.012,4.012,0,0,0,3,7v8H7ZM35,3H27V7h8v8h4V7A4.012,4.012,0,0,0,35,3Zm0,32H27v4h8a4.012,4.012,0,0,0,4-4V27H35Z" transform="translate(660 3550)" fill="#8ba779"/><path d="M41.422,20.587l-18-18a1.992,1.992,0,0,0-2.821,0l-18,18a1.992,1.992,0,0,0,0,2.821l18,18a1.992,1.992,0,0,0,2.821,0l18-18a1.992,1.992,0,0,0,0-2.821ZM26,27.009v-5H18v6H14v-8a2.006,2.006,0,0,1,2-2H26v-5l7,7Z" transform="translate(658.992 3627.002)" fill="#8ba779"/><path d="M13,3,5,10.98h6V25h4V10.98h6ZM27,31.02V17H23V31.02H17L25,39l8-7.98Z" transform="translate(662 3380)" fill="#8ba779"/><path d="M33,21H21V33H17V21H5V17H17V5h4V17H33Z" transform="translate(662 3037)" fill="#8ba779"/></g><g transform="translate(-58 -2867)"><g transform="translate(743 3467)"><circle cx="2" cy="2" r="2" transform="translate(2.836 1.341)" fill="#8ba779"/><path d="M20.3,21a9.609,9.609,0,0,1-1.64-1.44l-2.8-3.1a4.291,4.291,0,0,0-1.38-1A4.45,4.45,0,0,0,12.56,15H12.5A4.507,4.507,0,0,0,8,19.5V21H2V37a4.012,4.012,0,0,0,4,4H38a4.012,4.012,0,0,0,4-4V21ZM12,37H8V25h4Zm8,0H16V25h4Zm8,0H24V25h4Zm8,0H32V25h4ZM35.3,8.72l-.14-.14a5.052,5.052,0,0,1-1.34-4.4L34,3H30.22l-.12.86a8.586,8.586,0,0,0,2.6,7.44l.14.12a5.052,5.052,0,0,1,1.34,4.4L33.96,17h3.82l.12-.86A8.473,8.473,0,0,0,35.3,8.72Zm-8,0-.14-.14a5.052,5.052,0,0,1-1.34-4.4L26,3H22.22l-.12.86a8.586,8.586,0,0,0,2.6,7.44l.14.12a5.052,5.052,0,0,1,1.34,4.4L25.96,17h3.82l.12-.86A8.473,8.473,0,0,0,27.3,8.72Z" transform="translate(-2 -3)" fill="#8ba779"/></g><path d="M20,12V4L36,20,20,36V28H4V12Z" transform="translate(743 2867)" fill="#8ba779"/><path d="M17,13V5L3,19,17,33V24.8C27,24.8,34,28,39,35,37,25,31,15,17,13Z" transform="translate(742 2952)" fill="#8ba779"/><path d="M38,11H30V7a4.029,4.029,0,0,0-4-4H18a4.012,4.012,0,0,0-4,4v4H6a4.012,4.012,0,0,0-4,4V37a4.012,4.012,0,0,0,4,4H38a4.012,4.012,0,0,0,4-4V15A4.012,4.012,0,0,0,38,11ZM18,7h8v4H18Zm2,27-2-2,6-6-6-6,2-2,8,8Z" transform="translate(741 3122)" fill="#8ba779"/><path d="M38,2H6A4.012,4.012,0,0,0,2,6V42l8-8H38a4.012,4.012,0,0,0,4-4V6A4.012,4.012,0,0,0,38,2Z" transform="translate(741 3205)" fill="#8ba779"/><path d="M3,3V39H39V3ZM19,35H7V23H19Zm0-16H7V7H19ZM35,35H23V23H35Zm0-16H23V7H35Z" transform="translate(742 3293)" fill="#8ba779"/><path d="M15,40H5v4H15v4l6-6-6-6Zm8,0v4H33V40ZM19,16a4,4,0,1,0-3.98-4A4.012,4.012,0,0,0,19,16ZM29,0H9A4.012,4.012,0,0,0,5,4V32a4.012,4.012,0,0,0,4,4H29a4.012,4.012,0,0,0,4-4V4A4.012,4.012,0,0,0,29,0ZM9,4H29V25c0-3.34-6.66-5-10-5S9,21.66,9,25Z" transform="translate(744 3547)" fill="#8ba779"/><path d="M40,30V26L24,16V5a3,3,0,0,0-6,0V16L2,26v4l16-5V36l-4,3v3l7-2,7,2V39l-4-3V25Z" transform="translate(742 3627)" fill="#8ba779"/><path d="M28.41,37.32l2.82-2.82-6.82-6.82L21.59,30.5ZM9.41,12.5h7V23.68L5.59,34.5l2.82,2.82,12-12V12.5h7l-9-9Z" transform="translate(744.41 3380.5)" fill="#8ba779"/><path d="M17.28,13.28A7.794,7.794,0,0,0,18,10a8,8,0,1,0-8,8,7.794,7.794,0,0,0,3.28-.72L18,22l-4.72,4.72A7.794,7.794,0,0,0,10,26a8,8,0,1,0,8,8,7.794,7.794,0,0,0-.72-3.28L22,26,36,40h6V38ZM10,14a4,4,0,1,1,4-4A4,4,0,0,1,10,14Zm0,24a4,4,0,1,1,4-4A4,4,0,0,1,10,38ZM22,23a1,1,0,1,1,1-1A.99.99,0,0,1,22,23ZM36,4,24,16l4,4L42,6V4Z" transform="translate(741 3034)" fill="#8ba779"/></g><g transform="translate(-61 -2867)"><path d="M2,10,15.98,24H2v6H21.98l14,14,2.52-2.5-34-34ZM39,24h3v6H39Zm-5,0h3v6H34ZM35.7,7.76A6.647,6.647,0,0,0,37.7,3h-3A3.7,3.7,0,0,1,31,6.7v3a8.041,8.041,0,0,1,8,8.14V22h3V17.84A11.115,11.115,0,0,0,35.7,7.76ZM27,15.4h3.06A3.854,3.854,0,0,1,34,19.5V22h3V18.82c0-3.6-3.2-6.32-6.94-6.32H27a3.973,3.973,0,0,1-3.7-4A3.539,3.539,0,0,1,27,5V2a6.7,6.7,0,1,0,0,13.4Zm5,14.46V24H26.14Z" transform="translate(229 3463)" fill="#8ba779"/><path d="M35,3H6.98A3.965,3.965,0,0,0,3.02,7L3,35a3.982,3.982,0,0,0,3.98,4H35a4.012,4.012,0,0,0,4-4V7A4.012,4.012,0,0,0,35,3Zm0,24H27a6,6,0,0,1-12,0H6.98V7H35ZM29,17H25V11H17v6H13l8,8Z" transform="translate(230 2866)" fill="#8ba779"/><path d="M23,9A20.929,20.929,0,0,0,9.2,14.2L2,7V25H20l-7.24-7.24A15.942,15.942,0,0,1,38.2,25l4.74-1.56A21.028,21.028,0,0,0,23,9Z" transform="translate(229 2956)" fill="#8ba779"/><path d="M30,1H6A4.012,4.012,0,0,0,2,5V33H6V5H30Zm6,8H14a4.012,4.012,0,0,0-4,4V41a4.012,4.012,0,0,0,4,4H36a4.012,4.012,0,0,0,4-4V13A4.012,4.012,0,0,0,36,9Zm0,32H14V13H36Z" transform="translate(230 3121)" fill="#8ba779"/><path d="M40,10H36V28H10v4a2.006,2.006,0,0,0,2,2H34l8,8V12A2.006,2.006,0,0,0,40,10ZM32,22V4a2.006,2.006,0,0,0-2-2H4A2.006,2.006,0,0,0,2,4V32l8-8H30A2.006,2.006,0,0,0,32,22Z" transform="translate(229 3205)" fill="#8ba779"/><g transform="translate(227 3308)"><path d="M31.5,14,24,6.5,4,26.5V34h7.5Zm5.919-5.919a1.991,1.991,0,0,0,0-2.82L32.736.582a1.991,1.991,0,0,0-2.82,0L26,4.5,33.5,12Z" transform="translate(7 -16.997)" fill="#8ba779"/><path d="M0,20H48v8H0Z" transform="translate(0 0.002)" fill="#8ba779"/></g><path d="M6,10H2V38a4.012,4.012,0,0,0,4,4H34V38H6ZM38,2H14a4.012,4.012,0,0,0-4,4V30a4.012,4.012,0,0,0,4,4H38a4.012,4.012,0,0,0,4-4V6A4.012,4.012,0,0,0,38,2ZM36,20H28v8H24V20H16V16h8V8h4v8h8Z" transform="translate(229 3549)" fill="#8ba779"/><path d="M19,2A14.015,14.015,0,0,0,5,16C5,26.5,19,42,19,42S33,26.5,33,16A14.015,14.015,0,0,0,19,2Zm8,16H21v6H17V18H11V14h6V8h4v6h6Z" transform="translate(232 3627)" fill="#8ba779"/><path d="M35,2H7A4,4,0,0,0,3,6V34a4,4,0,0,0,4,4h8l6,6,6-6h8a4.012,4.012,0,0,0,4-4V6A4.012,4.012,0,0,0,35,2ZM23,34H19V30h4Zm4.14-15.5-1.8,1.84A6.809,6.809,0,0,0,23,26H19V25a8.05,8.05,0,0,1,2.34-5.66l2.48-2.52A3.911,3.911,0,0,0,25,14a4,4,0,0,0-8,0H13a8,8,0,0,1,16,0A6.364,6.364,0,0,1,27.14,18.5Z" transform="translate(230 3378)" fill="#8ba779"/><path d="M22,2A20,20,0,1,0,42,22,20.007,20.007,0,0,0,22,2ZM6,22A16,16,0,0,1,22,6a15.8,15.8,0,0,1,9.8,3.38L9.38,31.8A15.8,15.8,0,0,1,6,22ZM22,38a15.8,15.8,0,0,1-9.8-3.38L34.62,12.2A15.8,15.8,0,0,1,38,22,16,16,0,0,1,22,38Z" transform="translate(229 3034)" fill="#8ba779"/></g><g transform="translate(-60 -2867)"><path d="M38.7,16.08a14.985,14.985,0,0,0-28-4A12,12,0,0,0,12,36H38a9.971,9.971,0,0,0,.7-19.92ZM20,30l-7-7,2.82-2.82L20,24.34,30.36,14l2.82,2.82Z" transform="translate(314 3466)" fill="#8ba779"/><path d="M35,3H6.98A3.952,3.952,0,0,0,3.02,7L3,35a3.982,3.982,0,0,0,3.98,4H35a4.012,4.012,0,0,0,4-4V7A4,4,0,0,0,35,3Zm0,24H27a6,6,0,0,1-12,0H6.98V7H35Z" transform="translate(317 2866)" fill="#8ba779"/><path d="M2.02,39,44,21,2.02,3,2,17l30,4L2,25Z" transform="translate(315 2951)" fill="#8ba779"/><path d="M38.08,7.46,35.3,4.1A2.9,2.9,0,0,0,33,3H9A2.972,2.972,0,0,0,6.68,4.1L3.92,7.46A3.916,3.916,0,0,0,3,10V35a4.012,4.012,0,0,0,4,4H35a4.012,4.012,0,0,0,4-4V10A3.916,3.916,0,0,0,38.08,7.46ZM21,32,10,21h7V17h8v4h7ZM7.24,7,8.86,5h24l1.88,2Z" transform="translate(317 3123)" fill="#8ba779"/><path d="M41,5.5a23.609,23.609,0,0,0-7-1c-3.9,0-8.1.8-11,3-2.9-2.2-7.1-3-11-3s-8.1.8-11,3V36.8a1.075,1.075,0,0,0,1,1c.2,0,.3-.1.5-.1A24.411,24.411,0,0,1,12,35.5c3.9,0,8.1.8,11,3a24.091,24.091,0,0,1,11-3,20.357,20.357,0,0,1,9.5,2.1.9.9,0,0,0,.5.1,1.075,1.075,0,0,0,1-1V7.5A13.641,13.641,0,0,0,41,5.5Zm0,27a23.241,23.241,0,0,0-7-1,24.091,24.091,0,0,0-11,3v-23a24.091,24.091,0,0,1,11-3,23.241,23.241,0,0,1,7,1Z" transform="translate(315 3205.5)" fill="#8ba779"/><path d="M11,39h4V35H11Zm0-16h4V19H11Zm8,0h4V19H19Zm0,16h4V35H19ZM3,31H7V27H3Zm0,8H7V35H3ZM3,23H7V19H3Zm0-8H7V11H3ZM19,31h4V27H19ZM35,15h4V11H35Zm0,8h4V19H35ZM3,3V7H39V3ZM35,31h4V27H35Zm-8,8h4V35H27ZM19,15h4V11H19ZM35,39h4V35H35ZM27,23h4V19H27Z" transform="translate(317 3293)" fill="#8ba779"/><path d="M35,2H7A4.012,4.012,0,0,0,3,6V34a4.012,4.012,0,0,0,4,4h8l6,6,6-6h8a4.012,4.012,0,0,0,4-4V6A4.012,4.012,0,0,0,35,2ZM24.76,23.76,21,32l-3.76-8.24L9,20l8.24-3.76L21,8l3.76,8.24L33,20Z" transform="translate(317 3548)" fill="#8ba779"/><path d="M20,2C11.16,2,4,3,4,10V29a7.008,7.008,0,0,0,7,7L8,39v1H32V39l-3-3a7.008,7.008,0,0,0,7-7V10C36,3,28.84,2,20,2ZM11,32a3,3,0,1,1,3-3A3,3,0,0,1,11,32Zm7-12H8V10H18ZM29,32a3,3,0,1,1,3-3A3,3,0,0,1,29,32Zm3-12H22V10H32Z" transform="translate(318 3628)" fill="#8ba779"/><path d="M38,4H6A4,4,0,0,0,2.02,8L2,32a4.012,4.012,0,0,0,4,4H38a4.012,4.012,0,0,0,4-4V8A4.012,4.012,0,0,0,38,4Zm0,8L22,22,6,12V8L22,18,38,8Z" transform="translate(316 3381)" fill="#8ba779"/><path d="M17.86,25h8.28L22,13.96ZM38,2H6A4.012,4.012,0,0,0,2,6V38a4.012,4.012,0,0,0,4,4H38a4.012,4.012,0,0,0,4-4V6A4.012,4.012,0,0,0,38,2ZM29.9,35l-2.28-6H16.34L14.1,35H9.92L20.14,9h3.72L34.08,35H29.9Z" transform="translate(316 3034)" fill="#8ba779"/></g><g transform="translate(-64 -2867)"><path d="M42,20H33.66l6.48-6.48-2.82-2.84L28,20H24V16l9.32-9.32L30.48,3.86,24,10.34V2H20v8.34L13.52,3.86,10.68,6.68,20,16v4H16L6.68,10.68,3.86,13.52,10.34,20H2v4h8.34L3.86,30.48l2.82,2.84L16,24h4v4l-9.32,9.32,2.84,2.82L20,33.66V42h4V33.66l6.48,6.48,2.84-2.82L24,28V24h4l9.32,9.32,2.82-2.84L33.66,24H42Z" transform="translate(827 3464)" fill="#8ba779"/><path d="M22,2A20,20,0,1,0,42,22,20.007,20.007,0,0,0,22,2ZM32,24H12V20H32Z" transform="translate(827 2865)" fill="#8ba779"/><path d="M5,30v4H33V30Zm9-8.4H24L25.8,26H30L20.5,4h-3L8,26h4.2ZM19,7.96,22.74,18H15.26Z" transform="translate(830 2953)" fill="#8ba779"/><path d="M22,2A20,20,0,1,0,42,22,20.007,20.007,0,0,0,22,2ZM32,24H24v8H20V24H12V20h8V12h4v8h8Z" transform="translate(827 3122)" fill="#8ba779"/><path d="M35.6,7a4,4,0,0,0-3.98-4h-14L12.94,7.68,35.62,30.36ZM4.92,4.76,2.38,7.3l5.24,5.24V35a4.012,4.012,0,0,0,4,4H31.64a3.94,3.94,0,0,0,1.92-.52l3.76,3.76,2.54-2.54Z" transform="translate(827.62 3204)" fill="#8ba779"/><path d="M3,15H7V11H3ZM3,7H7V3H3Zm8,32h4V35H11Zm0-16h4V19H11ZM3,23H7V19H3ZM3,39H7V35H3Zm0-8H7V27H3ZM11,7h4V3H11ZM35,31h4V27H35ZM19,39h4V3H19Zm16,0h4V35H35Zm0-16h4V19H35ZM35,3V7h4V3Zm0,12h4V11H35ZM27,7h4V3H27Zm0,32h4V35H27Zm0-16h4V19H27Z" transform="translate(828 3293)" fill="#8ba779"/><path d="M23.8,8,23,4H5V38H9V24H20.2l.8,4H35V8Z" transform="translate(829 3550)" fill="#8ba779"/><path d="M38,41a14.063,14.063,0,0,1-8-2.64,13.757,13.757,0,0,1-16,0A14.063,14.063,0,0,1,6,41H2v4H6a17.654,17.654,0,0,0,8-1.98,17.5,17.5,0,0,0,16,0,17.4,17.4,0,0,0,8,1.98h4V41ZM5.9,37H6a10.9,10.9,0,0,0,8-4,10.9,10.9,0,0,0,8,4,10.9,10.9,0,0,0,8-4,10.9,10.9,0,0,0,8,4h.1l3.78-13.358a2.105,2.105,0,0,0-.12-1.56,1.993,1.993,0,0,0-1.2-1L38,20.238V11a4.011,4.011,0,0,0-4-4H28V1H16V7H10a4.011,4.011,0,0,0-4,4v9.239l-2.58.84a1.993,1.993,0,0,0-1.2,1,2.013,2.013,0,0,0-.12,1.56ZM10,11H34v7.939L22,15l-12,3.94Z" transform="translate(827.002 3626)" fill="#8ba779"/><path d="M26.5,4l5.153,5.153-6.48,6.48,3.195,3.195,6.48-6.48L40,17.5V4Zm-9,0H4V17.5l5.153-5.153,10.6,10.575V40h4.5V21.077L12.347,9.153Z" transform="translate(827 3379)" fill="#8ba779"/><path d="M38.3,39.47l-4.7-4.7L21,22.19l-7.12-7.14-2.84-2.82-5.5-5.5L3,9.27l5.56,5.56a16,16,0,0,0,22.5,22.5l5.4,5.4L39,40.19l-.7-.72ZM21,36.91a11.98,11.98,0,0,1-9.58-19.2L21,27.27ZM21,7.93v9.16L35.5,31.61a15.969,15.969,0,0,0-3.2-18.02L21,2.27l-7.4,7.4,2.82,2.82Z" transform="translate(828 3033.73)" fill="#8ba779"/></g></svg>